<svg width="46" height="44" viewBox="0 0 46 44" fill="none" xmlns="http://www.w3.org/2000/svg">
<rect width="46" height="44" rx="22" fill="#59CE72"/>
<g clip-path="url(#clip0_104_16052)">
<path d="M34.2071 10.65C31.2143 7.65 27.2286 6 22.9929 6C14.25 6 7.13571 13.1143 7.13571 21.8571C7.13571 24.65 7.86429 27.3786 9.25 29.7857L7 38L15.4071 35.7929C17.7214 37.0571 20.3286 37.7214 22.9857 37.7214H22.9929C31.7286 37.7214 39 30.6071 39 21.8643C39 17.6286 37.2 13.65 34.2071 10.65ZM22.9929 35.05C20.6214 35.05 18.3 34.4143 16.2786 33.2143L15.8 32.9286L10.8143 34.2357L12.1429 29.3714L11.8286 28.8714C10.5071 26.7714 9.81429 24.35 9.81429 21.8571C9.81429 14.5929 15.7286 8.67857 23 8.67857C26.5214 8.67857 29.8286 10.05 32.3143 12.5429C34.8 15.0357 36.3286 18.3429 36.3214 21.8643C36.3214 29.1357 30.2571 35.05 22.9929 35.05ZM30.2214 25.1786C29.8286 24.9786 27.8786 24.0214 27.5143 23.8929C27.15 23.7571 26.8857 23.6929 26.6214 24.0929C26.3571 24.4929 25.6 25.3786 25.3643 25.65C25.1357 25.9143 24.9 25.95 24.5071 25.75C22.1786 24.5857 20.65 23.6714 19.1143 21.0357C18.7071 20.3357 19.5214 20.3857 20.2786 18.8714C20.4071 18.6071 20.3429 18.3786 20.2429 18.1786C20.1429 17.9786 19.35 16.0286 19.0214 15.2357C18.7 14.4643 18.3714 14.5714 18.1286 14.5571C17.9 14.5429 17.6357 14.5429 17.3714 14.5429C17.1071 14.5429 16.6786 14.6429 16.3143 15.0357C15.95 15.4357 14.9286 16.3929 14.9286 18.3429C14.9286 20.2929 16.35 22.1786 16.5429 22.4429C16.7429 22.7071 19.3357 26.7071 23.3143 28.4286C25.8286 29.5143 26.8143 29.6071 28.0714 29.4214C28.8357 29.3071 30.4143 28.4643 30.7429 27.5357C31.0714 26.6071 31.0714 25.8143 30.9714 25.65C30.8786 25.4714 30.6143 25.3714 30.2214 25.1786Z" fill="white"/>
</g>
<defs>
<clipPath id="clip0_104_16052">
<rect width="32" height="32" fill="white" transform="translate(7 6)"/>
</clipPath>
</defs>
</svg>
