<svg width="40" height="40" viewBox="0 0 40 40" fill="none" xmlns="http://www.w3.org/2000/svg">
<g clip-path="url(#clip0_104_16051)">
<path d="M15.5 29.75C16.3284 29.75 17 29.0784 17 28.25C17 27.4216 16.3284 26.75 15.5 26.75C14.6716 26.75 14 27.4216 14 28.25C14 29.0784 14.6716 29.75 15.5 29.75Z" fill="#600F0C"/>
<path d="M25.25 29.75C26.0784 29.75 26.75 29.0784 26.75 28.25C26.75 27.4216 26.0784 26.75 25.25 26.75C24.4216 26.75 23.75 27.4216 23.75 28.25C23.75 29.0784 24.4216 29.75 25.25 29.75Z" fill="#600F0C"/>
<path d="M11.9647 14.75H29L26.3262 23.4416C26.2318 23.7482 26.0415 24.0165 25.7833 24.207C25.5252 24.3975 25.2127 24.5002 24.8919 24.5H15.8816C15.5556 24.5001 15.2384 24.3941 14.9781 24.1978C14.7177 24.0016 14.5284 23.7259 14.4387 23.4125L11.0478 11.5438C11.003 11.3871 10.9084 11.2493 10.7784 11.1512C10.6483 11.0531 10.4898 11 10.3269 11H8.75" stroke="#600F0C" stroke-width="1.5" stroke-linecap="round" stroke-linejoin="round"/>
</g>
<defs>
<clipPath id="clip0_104_16051">
<rect width="24" height="24" fill="white" transform="translate(8 8)"/>
</clipPath>
</defs>
</svg>
