<svg width="116" height="29" viewBox="0 0 116 29" fill="none" xmlns="http://www.w3.org/2000/svg">
<path d="M19.9265 11.3673C19.9265 11.0829 19.7068 10.902 19.2674 10.8244L13.2572 9.93261L10.5816 4.50404C10.4265 4.19383 10.2327 4.03873 10 4.03873C9.76736 4.03873 9.57349 4.19383 9.41838 4.50404L6.74287 9.93261L0.73267 10.8244C0.293214 10.902 0.0734863 11.0829 0.0734863 11.3673C0.0734863 11.5483 0.176888 11.7421 0.38369 11.9489L4.72655 16.1755L3.67961 22.1469C3.67961 22.2503 3.67961 22.3278 3.67961 22.3795C3.67961 22.5347 3.71838 22.6704 3.79594 22.7867C3.87349 22.903 4.00274 22.9612 4.18369 22.9612C4.31294 22.9612 4.46804 22.9095 4.649 22.8061L10 20.0142L15.351 22.8061C15.532 22.9095 15.6871 22.9612 15.8163 22.9612C15.9973 22.9612 16.1265 22.903 16.2041 22.7867C16.2817 22.6704 16.3204 22.5347 16.3204 22.3795C16.3204 22.2761 16.3204 22.1986 16.3204 22.1469L15.2735 16.1755L19.6163 11.9489C19.8231 11.7421 19.9265 11.5483 19.9265 11.3673Z" fill="#9A7C45"/>
<path d="M43.9265 11.3673C43.9265 11.0829 43.7068 10.902 43.2674 10.8244L37.2572 9.93261L34.5816 4.50404C34.4265 4.19383 34.2327 4.03873 34 4.03873C33.7674 4.03873 33.5735 4.19383 33.4184 4.50404L30.7429 9.93261L24.7327 10.8244C24.2932 10.902 24.0735 11.0829 24.0735 11.3673C24.0735 11.5483 24.1769 11.7421 24.3837 11.9489L28.7265 16.1755L27.6796 22.1469C27.6796 22.2503 27.6796 22.3278 27.6796 22.3795C27.6796 22.5347 27.7184 22.6704 27.7959 22.7867C27.8735 22.903 28.0027 22.9612 28.1837 22.9612C28.3129 22.9612 28.468 22.9095 28.649 22.8061L34 20.0142L39.351 22.8061C39.532 22.9095 39.6871 22.9612 39.8163 22.9612C39.9973 22.9612 40.1265 22.903 40.2041 22.7867C40.2817 22.6704 40.3204 22.5347 40.3204 22.3795C40.3204 22.2761 40.3204 22.1986 40.3204 22.1469L39.2735 16.1755L43.6163 11.9489C43.8231 11.7421 43.9265 11.5483 43.9265 11.3673Z" fill="#9A7C45"/>
<path d="M67.9265 11.3673C67.9265 11.0829 67.7068 10.902 67.2674 10.8244L61.2572 9.93261L58.5816 4.50404C58.4265 4.19383 58.2327 4.03873 58 4.03873C57.7674 4.03873 57.5735 4.19383 57.4184 4.50404L54.7429 9.93261L48.7327 10.8244C48.2932 10.902 48.0735 11.0829 48.0735 11.3673C48.0735 11.5483 48.1769 11.7421 48.3837 11.9489L52.7265 16.1755L51.6796 22.1469C51.6796 22.2503 51.6796 22.3278 51.6796 22.3795C51.6796 22.5347 51.7184 22.6704 51.7959 22.7867C51.8735 22.903 52.0027 22.9612 52.1837 22.9612C52.3129 22.9612 52.468 22.9095 52.649 22.8061L58 20.0142L63.351 22.8061C63.532 22.9095 63.6871 22.9612 63.8163 22.9612C63.9973 22.9612 64.1265 22.903 64.2041 22.7867C64.2817 22.6704 64.3204 22.5347 64.3204 22.3795C64.3204 22.2761 64.3204 22.1986 64.3204 22.1469L63.2735 16.1755L67.6163 11.9489C67.8231 11.7421 67.9265 11.5483 67.9265 11.3673Z" fill="#9A7C45"/>
<path d="M91.9265 11.3673C91.9265 11.0829 91.7068 10.902 91.2674 10.8244L85.2572 9.93261L82.5816 4.50404C82.4265 4.19383 82.2327 4.03873 82 4.03873C81.7674 4.03873 81.5735 4.19383 81.4184 4.50404L78.7429 9.93261L72.7327 10.8244C72.2932 10.902 72.0735 11.0829 72.0735 11.3673C72.0735 11.5483 72.1769 11.7421 72.3837 11.9489L76.7265 16.1755L75.6796 22.1469C75.6796 22.2503 75.6796 22.3278 75.6796 22.3795C75.6796 22.5347 75.7184 22.6704 75.7959 22.7867C75.8735 22.903 76.0027 22.9612 76.1837 22.9612C76.3129 22.9612 76.468 22.9095 76.649 22.8061L82 20.0142L87.351 22.8061C87.532 22.9095 87.6871 22.9612 87.8163 22.9612C87.9973 22.9612 88.1265 22.903 88.2041 22.7867C88.2817 22.6704 88.3204 22.5347 88.3204 22.3795C88.3204 22.2761 88.3204 22.1986 88.3204 22.1469L87.2735 16.1755L91.6163 11.9489C91.8231 11.7421 91.9265 11.5483 91.9265 11.3673Z" fill="#9A7C45"/>
<path d="M115.927 11.3673C115.927 11.0829 115.707 10.902 115.267 10.8244L109.257 9.93261L106.582 4.50404C106.427 4.19383 106.233 4.03873 106 4.03873C105.767 4.03873 105.573 4.19383 105.418 4.50404L102.743 9.93261L96.7327 10.8244C96.2932 10.902 96.0735 11.0829 96.0735 11.3673C96.0735 11.5483 96.1769 11.7421 96.3837 11.9489L100.727 16.1755L99.6796 22.1469C99.6796 22.2503 99.6796 22.3278 99.6796 22.3795C99.6796 22.5347 99.7184 22.6704 99.7959 22.7867C99.8735 22.903 100.003 22.9612 100.184 22.9612C100.313 22.9612 100.468 22.9095 100.649 22.8061L106 20.0142L111.351 22.8061C111.532 22.9095 111.687 22.9612 111.816 22.9612C111.997 22.9612 112.127 22.903 112.204 22.7867C112.282 22.6704 112.32 22.5347 112.32 22.3795C112.32 22.2761 112.32 22.1986 112.32 22.1469L111.273 16.1755L115.616 11.9489C115.823 11.7421 115.927 11.5483 115.927 11.3673Z" fill="#9A7C45"/>
</svg>
