<svg width="470" height="185" viewBox="0 0 470 185" fill="none" xmlns="http://www.w3.org/2000/svg">
<path opacity="0.35" d="M234.906 159.339C364.641 159.339 469.812 142.396 469.812 121.496C469.812 100.596 364.641 83.6531 234.906 83.6531C105.171 83.6531 0 100.596 0 121.496C0 142.396 105.171 159.339 234.906 159.339Z" fill="#D8B69C"/>
<path d="M74.7427 41.8265L317.657 0L421.763 53.7769L173.51 105.562L74.7427 41.8265Z" fill="#6A2E1C"/>
<path d="M173.51 105.562L421.763 53.777V127.471L173.51 179.256V105.562Z" fill="#3D180F"/>
<path d="M74.7427 41.8263L173.51 105.562V179.256L74.7427 111.537V41.8263Z" fill="#4A1B10"/>
<path d="M112.114 42.8225L308.314 9.95888L388.396 51.7854L186.857 90.6242L112.114 42.8225Z" fill="#8A3A21"/>
<path d="M146.816 56.7644C170.841 45.8098 201.538 47.8016 218.89 62.7396C236.241 77.6776 268.273 77.6776 288.294 64.7313C305.645 53.7768 333.673 53.7768 363.036 64.7313" stroke="#B8613A" stroke-width="8" stroke-linecap="round"/>
<path opacity="0.7" d="M194.865 125.479C237.575 115.521 280.285 105.562 328.334 95.6033" stroke="#6B2A1B" stroke-width="6" stroke-linecap="round"/>
<path opacity="0.55" d="M194.865 151.372C248.253 137.43 302.975 126.476 368.375 113.529" stroke="#6B2A1B" stroke-width="6" stroke-linecap="round"/>
<path d="M114.116 174.959C120.013 174.959 124.794 171.392 124.794 166.992C124.794 162.592 120.013 159.025 114.116 159.025C108.219 159.025 103.439 162.592 103.439 166.992C103.439 171.392 108.219 174.959 114.116 174.959Z" fill="#5A1E12"/>
<path d="M136.139 185C139.825 185 142.812 182.77 142.812 180.02C142.812 177.27 139.825 175.041 136.139 175.041C132.453 175.041 129.465 177.27 129.465 180.02C129.465 182.77 132.453 185 136.139 185Z" fill="#6A2E1C"/>
<path d="M399.073 157.952C404.233 157.952 408.416 154.831 408.416 150.981C408.416 147.131 404.233 144.01 399.073 144.01C393.913 144.01 389.731 147.131 389.731 150.981C389.731 154.831 393.913 157.952 399.073 157.952Z" fill="#5A1E12"/>
</svg>
