<svg width="143" height="134" viewBox="0 0 143 134" fill="none" xmlns="http://www.w3.org/2000/svg">
<path d="M90.892 3.48053C52.9011 -8.25897 13.417 10.6629 2.70197 45.7437C-8.01308 80.8245 14.0984 118.78 52.0894 130.519C90.0804 142.259 129.564 123.337 140.28 88.2562C150.995 53.1754 128.883 15.22 90.892 3.48053Z" fill="#F7F0E6"/>
<path d="M118.167 81.4207C110.545 106.377 84.1196 118.073 55.8676 109.342C27.6156 100.61 14.7336 76.7663 22.3557 51.8105C31.3636 22.3173 62.1668 9.49123 85.5055 16.704C110.072 24.2963 127.175 51.9275 118.167 81.4207Z" fill="#6B2A1B"/>
<path d="M102.388 80.2752C97.191 97.2902 78.9861 104.078 59.3325 98.0045C39.6788 91.9308 29.6314 76.4118 34.8282 59.3968C41.4109 37.8445 63.1118 28.4127 80.3088 33.7272C96.2774 38.6621 108.97 58.7229 102.388 80.2752Z" fill="#8A3A21"/>
<path d="M87.3526 83.7084C41.0936 95.6319 42.0197 63.4075 42.0197 63.4075" stroke="#C97B52" stroke-width="5" stroke-linecap="round"/>
<path d="M92.8496 58.6484C90.136 57.8099 87.3157 59.1615 86.5503 61.6672C85.785 64.173 87.3644 66.8841 90.078 67.7226C92.7916 68.5612 95.6119 67.2096 96.3773 64.7039C97.1427 62.1981 95.5633 59.487 92.8496 58.6484Z" fill="#F2D0B8"/>
<path d="M55.4488 44.685C52.7352 43.8464 49.9149 45.198 49.1495 47.7038C48.3841 50.2095 49.9635 52.9206 52.6772 53.7592C55.3908 54.5977 58.2111 53.2461 58.9765 50.7404C59.7418 48.2346 58.1624 45.5235 55.4488 44.685Z" fill="#F2D0B8"/>
</svg>
