<svg width="40" height="40" viewBox="0 0 40 40" fill="none" xmlns="http://www.w3.org/2000/svg">
<g clip-path="url(#clip0_72_2822)">
<path fill-rule="evenodd" clip-rule="evenodd" d="M7.14901 4.61783C7.29201 4.34075 7.57773 4.16667 7.88954 4.16667H32.1955C32.5109 4.16667 32.7993 4.34476 32.9406 4.62679L35.7451 10.2257C35.8031 10.3415 35.8334 10.4693 35.8334 10.5989V35C35.8334 35.4603 35.4603 35.8333 35 35.8333H5.00002C4.53979 35.8333 4.16669 35.4603 4.16669 35V10.5989C4.16669 10.4659 4.1985 10.3348 4.25949 10.2167L7.14901 4.61783ZM8.39727 5.83334L6.36786 9.76559H15.2999V5.83334H8.39727ZM16.9665 5.83334V9.76559H22.8636V5.83334H16.9665ZM24.5303 5.83334V9.76559H33.6505L31.6809 5.83334H24.5303ZM34.1667 11.4323H24.5303V20.6268C24.5303 21.087 24.1571 21.4601 23.6969 21.4601H16.1332C15.6729 21.4601 15.2999 21.087 15.2999 20.6268V11.4323H5.83335V34.1667H34.1667V11.4323ZM16.9665 11.4323V19.7934H22.8636V11.4323H16.9665ZM13.4986 27.4768H7.88954V25.8101H13.4986V27.4768ZM11.8839 31.4879H7.88954V29.8213H11.8839V31.4879Z" fill="#6E5226"/>
</g>
<defs>
<clipPath id="clip0_72_2822">
<rect width="40" height="40" fill="white"/>
</clipPath>
</defs>
</svg>
