<svg width="40" height="40" viewBox="0 0 40 40" fill="none" xmlns="http://www.w3.org/2000/svg">
<g clip-path="url(#clip0_72_2835)">
<g clip-path="url(#clip1_72_2835)">
<path fill-rule="evenodd" clip-rule="evenodd" d="M0 7.34694C0 6.89609 0.365482 6.53061 0.816327 6.53061H25.0507C25.5016 6.53061 25.867 6.89609 25.867 7.34694V10.9103H32.2529C32.5162 10.9103 32.7634 11.0373 32.9167 11.2514L39.0482 19.8162C39.1475 19.9548 39.2008 20.121 39.2008 20.2914V29.5375C39.2008 29.9883 38.8354 30.3538 38.3845 30.3538H34.7953C34.4201 32.112 32.858 33.4305 30.9879 33.4305C29.1178 33.4305 27.5557 32.112 27.1806 30.3538H13.6635V29.5919C13.6343 31.7169 11.9027 33.4305 9.77078 33.4305C7.62069 33.4305 5.8777 31.6875 5.8777 29.5375C5.8777 27.3873 7.62069 25.6444 9.77078 25.6444C11.9027 25.6444 13.6343 27.358 13.6635 29.4829V28.7211H24.2344V8.16326H1.63265V28.7211H5.87733V30.3538H0.816327C0.365482 30.3538 0 29.9883 0 29.5375V7.34694ZM27.1805 28.7211C27.5557 26.9629 29.1178 25.6444 30.9879 25.6444C32.858 25.6444 34.4201 26.9629 34.7953 28.7211H37.5682V25.7308H36.73V24.0981H37.5682V21.1078H25.867V28.7211H27.1805ZM25.867 19.4751H36.7962L31.8334 12.5429H25.867V19.4751ZM9.77078 31.7979C11.0192 31.7979 12.0312 30.7859 12.0312 29.5375C12.0312 28.2891 11.0192 27.2771 9.77078 27.2771C8.52237 27.2771 7.51035 28.2891 7.51035 29.5375C7.51035 30.7859 8.52237 31.7979 9.77078 31.7979ZM33.2483 29.5375C33.2483 30.7859 32.2362 31.7979 30.9879 31.7979C29.7395 31.7979 28.7274 30.7859 28.7274 29.5375C28.7274 28.2891 29.7395 27.2771 30.9879 27.2771C32.2362 27.2771 33.2483 28.2891 33.2483 29.5375Z" fill="#6E5226"/>
<path d="M6.26664 15.8321H19.0165V17.4647H6.26664V15.8321Z" fill="#6E5226"/>
<path d="M14.0528 19.4751H19.0165V21.1078H14.0528V19.4751Z" fill="#6E5226"/>
<path d="M10.7434 29.5374C10.7434 30.0749 10.3077 30.5107 9.77012 30.5107C9.23265 30.5107 8.7969 30.0749 8.7969 29.5374C8.7969 28.9999 9.23265 28.5642 9.77012 28.5642C10.3077 28.5642 10.7434 28.9999 10.7434 29.5374Z" fill="#6E5226"/>
<path d="M31.7664 29.5374C31.7664 30.0749 31.3307 30.5107 30.7932 30.5107C30.2557 30.5107 29.8199 30.0749 29.8199 29.5374C29.8199 28.9999 30.2557 28.5642 30.7932 28.5642C31.3307 28.5642 31.7664 28.9999 31.7664 29.5374Z" fill="#6E5226"/>
</g>
</g>
<defs>
<clipPath id="clip0_72_2835">
<rect width="40" height="39.1837" fill="white"/>
</clipPath>
<clipPath id="clip1_72_2835">
<rect width="40" height="39.1837" fill="white"/>
</clipPath>
</defs>
</svg>
