<svg width="40" height="40" viewBox="0 0 40 40" fill="none" xmlns="http://www.w3.org/2000/svg">
<g clip-path="url(#clip0_72_2852)">
<path fill-rule="evenodd" clip-rule="evenodd" d="M9.75492 5.93138V5H11.4216V5.93138H28.5131V5H30.1797V5.93138H36.6667C37.1269 5.93138 37.5 6.30447 37.5 6.76471V35C37.5 35.4603 37.1269 35.8333 36.6667 35.8333H3.33333C2.8731 35.8333 2.5 35.4603 2.5 35V6.76471C2.5 6.30447 2.8731 5.93138 3.33333 5.93138H9.75492ZM9.75492 7.59804H4.16667V13.3683H35.8333V7.59804H30.1797V10.8613H28.5131V7.59804H11.4216V10.8613H9.75492V7.59804ZM35.8333 15.035H4.16667V34.1667H35.8333V15.035Z" fill="#6E5226"/>
</g>
<defs>
<clipPath id="clip0_72_2852">
<rect width="40" height="40" fill="white"/>
</clipPath>
</defs>
</svg>
